<svg id="Group_795" data-name="Group 795" xmlns="http://www.w3.org/2000/svg" xmlns:xlink="http://www.w3.org/1999/xlink" width="40" height="30" viewBox="0 0 40 30">
  <defs>
    <clipPath id="clip-path">
      <rect id="Rectangle_957" data-name="Rectangle 957" width="40" height="30" fill="none"/>
    </clipPath>
  </defs>
  <g id="Group_794" data-name="Group 794" clip-path="url(#clip-path)">
    <path id="Path_405" data-name="Path 405" d="M35,0H5A5,5,0,0,0,0,5V25a5,5,0,0,0,5,5H35a5,5,0,0,0,5-5V5a5,5,0,0,0-5-5" fill="#8b4aff"/>
    <path id="Path_406" data-name="Path 406" d="M16.733,16.531H15.294v-5.9h1.4v.787a2.017,2.017,0,0,1,1.789-.957A2.105,2.105,0,0,1,20.669,12.8v3.734H19.228v-3.49a1.155,1.155,0,0,0-.988-1.3,1.229,1.229,0,0,0-.254-.008,1.251,1.251,0,0,0-1.261,1.239,1.289,1.289,0,0,0,.009.155v3.406Z" transform="translate(3.823 2.614)" fill="#fff"/>
    <path id="Path_407" data-name="Path 407" d="M27.945,16.667a2.205,2.205,0,0,1-2.287-2.122,2,2,0,0,1,0-.229V10.593H27.1v3.469a1.245,1.245,0,1,0,2.485.153c0-.042,0-.085,0-.129V10.593h1.44v4.825c0,.484-.025.86,0,1.079H29.657a5.7,5.7,0,0,1,0-.654,1.947,1.947,0,0,1-1.713.824" transform="translate(6.414 2.648)" fill="#fff"/>
    <path id="Path_408" data-name="Path 408" d="M8.994,10.458A2.133,2.133,0,0,0,7.033,11.5a1.905,1.905,0,0,0-1.812-1.04,2.077,2.077,0,0,0-1.785.921v-.751H2.048l.007,5.9H3.484v-3.5A1.22,1.22,0,0,1,4.61,11.72c.043,0,.085,0,.128,0a1.088,1.088,0,0,1,1.171,1,1.15,1.15,0,0,1-.005.217v3.6H7.318V13.028a1.238,1.238,0,0,1,1.165-1.3h.089a1.089,1.089,0,0,1,1.169,1,1.163,1.163,0,0,1,0,.209v3.6h1.39V12.7a2.05,2.05,0,0,0-1.847-2.235,2.2,2.2,0,0,0-.288-.008" transform="translate(0.512 2.613)" fill="#fff"/>
    <path id="Path_409" data-name="Path 409" d="M26.2,8.512l-1.465.467v2.827a1.858,1.858,0,0,0-1.778-.85,2.928,2.928,0,0,0-2.884,2.969c0,.04,0,.081.005.122a2.9,2.9,0,0,0,2.9,3.116,2,2,0,0,0,1.775-.91v.764h1.44c-.013-.1,0-.545,0-1.079V8.512Zm-3.054,7.415a1.664,1.664,0,0,1-1.626-1.879,1.664,1.664,0,0,1,1.474-1.835c.055-.006.11-.009.165-.01a1.618,1.618,0,0,1,1.589,1.831,1.679,1.679,0,0,1-1.6,1.891" transform="translate(5.018 2.128)" fill="#fff"/>
    <path id="Path_410" data-name="Path 410" d="M12.931,10.475A3.035,3.035,0,0,0,9.8,13.413q0,.094,0,.188a3.047,3.047,0,0,0,2.95,3.14c.059,0,.119,0,.179,0a3.05,3.05,0,0,0,3.14-2.955c0-.061,0-.124,0-.185a3.032,3.032,0,0,0-2.933-3.128c-.07,0-.139,0-.207,0m1.554,3.716a.671.671,0,0,1-.484.628l-2.535.81a.059.059,0,0,1-.074-.035v0a.041.041,0,0,1,0-.017v-2.55a.67.67,0,0,1,.484-.626l2.535-.81a.06.06,0,0,1,.075.035v0a.041.041,0,0,1,0,.017v2.55Z" transform="translate(2.45 2.618)" fill="#fff"/>
  </g>
</svg>
